<svg viewBox="0 0 40 40" xmlns="http://www.w3.org/2000/svg" fill="none">
  <defs>
    <linearGradient id="primaryGradient" x1="0%" y1="0%" x2="100%" y2="100%">
      <stop offset="0%" style="stop-color:#dcf1fa;stop-opacity:1" />
      <stop offset="100%" style="stop-color:#6cbfe0;stop-opacity:1" />
    </linearGradient>
  </defs>
  
  <rect width="40" height="40" rx="8" fill="url(#primaryGradient)"/>
  
  <path
    d="M20 35C20 35 6 25 6 14C6 10 9 6 14 6C17 6 19 8 20 10C21 8 23 6 26 6C31 6 34 10 34 14C34 25 20 35 20 35Z"
    fill="white"
    opacity="0.3"
  />
  
  <path
    d="M4 20H10L12 16L14 24L16 12L18 28L20 8L22 32L24 14L26 22L28 18H36"
    stroke="white"
    stroke-width="2"
    stroke-linecap="round"
    stroke-linejoin="round"
  />
  
  <path
    d="M20 35C20 35 6 25 6 14C6 10 9 6 14 6C17 6 19 8 20 10C21 8 23 6 26 6C31 6 34 10 34 14C34 25 20 35 20 35Z"
    stroke="white"
    stroke-width="2"
    stroke-linecap="round"
    stroke-linejoin="round"
    fill="none"
  />
</svg>